<?xml version="1.0" encoding="UTF-8"?>
<svg id="Capa_1" data-name="Capa 1" xmlns="http://www.w3.org/2000/svg" xmlns:xlink="http://www.w3.org/1999/xlink" viewBox="0 0 774.02 420.39">
  <defs>
    <style>
      .cls-1 {
        fill: #b2d7ed;
      }

      .cls-2 {
        fill: #1d3b6d;
        font-family: KabelITCbyBT-Book, 'Kabel Bk BT';
        font-size: 25.21px;
      }

      .cls-3 {
        fill: #0a3a6e;
      }

      .cls-4 {
        filter: url(#drop-shadow-1);
      }
    </style>
    <filter id="drop-shadow-1" x="4.24" y="2.81" width="766" height="417" filterUnits="userSpaceOnUse">
      <feOffset dx="1" dy="1"/>
      <feGaussianBlur result="blur" stdDeviation="3"/>
      <feFlood flood-color="#615759" flood-opacity=".75"/>
      <feComposite in2="blur" operator="in"/>
      <feComposite in="SourceGraphic"/>
    </filter>
  </defs>
  <g class="cls-4">
    <g>
      <rect class="cls-1" x="219.57" y="106.55" width="203.22" height="7.89"/>
      <polygon class="cls-1" points="530.25 106.55 530.25 114.44 745.58 114.44 745.58 221.2 476.51 221.2 476.51 229.09 759.4 229.09 759.4 106.55 530.25 106.55"/>
      <polygon class="cls-1" points="47.44 114.44 111.32 114.44 111.32 106.55 33.61 106.55 33.61 229.09 60.53 229.09 60.53 221.2 47.44 221.2 47.44 114.44"/>
      <rect class="cls-1" x="167.99" y="221.2" width="201.06" height="7.89"/>
    </g>
    <text class="cls-2" transform="translate(501.29 266.23)"><tspan x="0" y="0">Leadership Solutions LLC</tspan></text>
    <g>
      <path class="cls-3" d="M156.07,69.39c.66-1.23,2.18-1.69,3.41-1.04,1.23.66,1.69,2.18,1.04,3.41l-120.47,225.88c23.15-35.55,47.27-70.49,73.43-103.43,5.23-6.58,10.54-13.08,15.94-19.49-1.38-3.78-2.65-7.37-3.79-10.75-.45-1.32.26-2.76,1.58-3.21,1.32-.45,2.76.26,3.21,1.58.86,2.52,1.78,5.17,2.77,7.93,30.55-35.73,64.02-68.52,101.94-96.4,24.45-20.17,51.26-35.35,77.31-44.25,22.7-7.76,44.86-10.75,64.42-8.13h.08c19.75,2.68,36.84,11.05,49.18,26,.04.05.08.1.12.15,5.82,7.08,10.56,15.62,14,25.69.45,1.32-.26,2.76-1.58,3.21-1.32.45-2.76-.26-3.21-1.58-3.24-9.49-7.68-17.5-13.12-24.11-.04-.04-.08-.08-.11-.13-11.49-13.92-27.46-21.72-45.96-24.21h-.07c-18.76-2.52-40.13.39-62.12,7.91-25.49,8.71-51.75,23.59-75.72,43.37-.07.06-.14.12-.21.17-38.35,28.19-72.13,61.48-102.94,97.78,7.7,20.8,18.72,46.97,32.57,74.11,21.55,42.21,50,86.78,83.6,117.12,33.21,30,71.5,46.06,113.13,31.88,5.04-1.72,10.12-3.87,15.22-6.47,1.24-.63,2.76-.14,3.39,1.1.63,1.24.14,2.76-1.1,3.39-5.37,2.74-10.67,4.99-15.9,6.77-43.68,14.88-83.62-1.76-118.14-32.93-34.13-30.82-62.92-75.91-84.71-118.57-13.38-26.21-24.12-51.49-31.82-71.97-4.73,5.66-9.4,11.39-14,17.18-35.57,44.77-67.34,93.28-98.08,141.99-.06.11-.13.21-.22.32-.97,1.23-1.95,1.8-2.77,1.95-.92.17-1.7-.06-2.34-.58-.55-.45-.89-1.06-1.02-1.78-.15-.84.06-1.97.66-2.91L156.07,69.39Z"/>
      <path class="cls-3" d="M435.44,163.98c-.45-1.32.26-2.76,1.58-3.21,1.32-.45,2.76.26,3.21,1.58.86,2.52,1.78,5.17,2.77,7.93,30.55-35.73,64.02-68.52,101.94-96.4,24.45-20.17,51.26-35.35,77.31-44.25,22.7-7.76,44.86-10.75,64.42-8.13h.08c19.75,2.68,36.84,11.05,49.18,26,.04.05.08.1.12.15,5.82,7.08,10.56,15.62,14,25.69.45,1.32-.26,2.76-1.58,3.21-1.32.45-2.76-.26-3.21-1.58-3.24-9.49-7.68-17.5-13.12-24.11-.04-.04-.08-.08-.11-.13-11.49-13.92-27.46-21.72-45.96-24.21h-.07c-18.76-2.52-40.13.39-62.12,7.91-25.49,8.71-51.75,23.59-75.72,43.37-.07.06-.14.12-.21.17-38.35,28.19-72.13,61.48-102.94,97.78,7.71,20.8,18.71,46.97,32.57,74.11,21.55,42.21,50,86.77,83.6,117.12,33.22,30,71.5,46.06,113.13,31.88,5.04-1.72,10.12-3.87,15.22-6.47,1.24-.63,2.76-.14,3.39,1.1.63,1.24.14,2.76-1.1,3.39-5.37,2.74-10.67,4.99-15.9,6.77-43.68,14.88-83.62-1.76-118.14-32.93-34.13-30.82-62.92-75.91-84.71-118.57-13.38-26.21-24.12-51.49-31.82-71.97-4.74,5.66-9.4,11.39-14,17.18-35.57,44.77-67.34,93.28-98.08,141.99-.06.11-.13.21-.21.32-.97,1.23-1.95,1.8-2.77,1.95-.92.17-1.7-.06-2.34-.58-.55-.45-.89-1.06-1.02-1.78-.15-.84.06-1.97.66-2.91L465.88,69.39c.66-1.23,2.18-1.69,3.41-1.04,1.23.66,1.69,2.18,1.04,3.41l-120.47,225.88c23.15-35.55,47.27-70.49,73.43-103.43,5.23-6.58,10.54-13.08,15.94-19.49-1.38-3.78-2.65-7.37-3.79-10.74"/>
      <path class="cls-3" d="M498.26,187.6c1.58-2.9,2.99-6,4.23-9.31.11-.69.23-1.41.34-2.16.11-.75.08-1.39-.08-1.93-.17-.54-.51-.95-1.01-1.23-.51-.28-1.27-.24-2.28.11-1.13.36-2.11,1.08-2.96,2.14-.85,1.06-1.61,2.09-2.28,3.07-1.92,3.05-2.99,6.34-3.21,9.86,0,.68.06,1.4.17,2.18.11.78.34,1.42.68,1.95.34.52.82.8,1.44.84.62.04,1.44-.4,2.45-1.31.56-.41,1.07-1.06,1.52-1.96.45-.9.79-1.65,1.01-2.24M535.81,176.08c.23-.37.51-.46.85-.27.34.18.39.46.17.82-1.13,2.62-2.57,5.5-4.31,8.65-1.75,3.15-3.75,6.1-6,8.85-2.26,2.76-4.76,5.09-7.53,7.01-2.76,1.92-5.72,2.9-8.88,2.95-2.14.04-3.92-.45-5.33-1.46-1.41-1.01-2.51-2.31-3.3-3.91-.79-1.59-1.3-3.39-1.52-5.39-.23-2-.17-4.04.17-6.11-.23.48-.39.78-.51.91-.56,1.42-1.24,2.86-2.03,4.31-.79,1.45-1.86,2.54-3.21,3.27-1.58.87-2.9,1.12-3.97.74-1.07-.38-1.89-1.07-2.45-2.07-.56-1-.93-2.23-1.1-3.67-.17-1.45-.14-2.75.08-3.9.23-1.49.62-3.12,1.18-4.88.56-1.76,1.35-3.44,2.37-5.03,1.01-1.59,2.2-3,3.55-4.24,1.35-1.24,2.88-2.07,4.57-2.5,2.48-.64,4.06-.33,4.74.94.68,1.27.9,2.82.68,4.65.34-.04.39.06.17.32-.23.93-.45,1.69-.68,2.28.34-.38.56-.69.68-.93.56-.63,1.24-.8,2.03-.5.79.3,1.01.86.68,1.69-1.01,2.6-1.89,5.11-2.62,7.51-.73,2.4-.82,4.98-.25,7.73.56,2.64,1.75,4.69,3.55,6.16,1.8,1.47,4.17,1.74,7.1.82,2.48-.75,4.79-2.05,6.93-3.89,2.14-1.84,4.09-3.94,5.83-6.29,1.75-2.36,3.33-4.83,4.74-7.43,1.41-2.6,2.62-4.97,3.64-7.13Z"/>
      <path class="cls-3" d="M584.85,169.57c.34-.38.68-.42,1.01-.12.34.3.39.68.17,1.16-2.82,3.61-5.83,7.03-9.05,10.24-3.21,3.21-6.57,6.27-10.06,9.18-1.13.93-2.31,1.83-3.55,2.72-1.24.88-2.48,1.49-3.72,1.81-1.24.32-2.42.3-3.55-.07-1.13-.37-2.09-1.35-2.88-2.95-.9-1.58-1.21-3.26-.93-5.04.28-1.78.65-3.55,1.1-5.29.23-1.27.51-2.54.85-3.82.34-1.28.62-2.56.85-3.82.11-.46.25-1.07.42-1.83.17-.75.34-1.54.51-2.35.17-.81.28-1.58.34-2.32.06-.74-.03-1.32-.25-1.74-.34-.64-.76-.89-1.27-.78-.51.12-1.01.41-1.52.86-.51.46-1.01,1-1.52,1.62-.51.63-.87,1.12-1.1,1.49-1.8,2.02-3.33,3.96-4.57,5.8-1.35,1.74-2.65,3.59-3.89,5.55-1.24,1.96-2.59,3.81-4.06,5.57-.45.73-.9.73-1.35,0-.45.62-.85.67-1.18.14-.9-1.13-1.32-2.35-1.27-3.65.06-1.3.25-2.76.59-4.39.23-1.49.59-3.03,1.1-4.62.51-1.58,1.32-3.01,2.45-4.27.34-.49.85-.64,1.52-.44.68.2.96.59.85,1.16-.11,1.37-.42,2.73-.93,4.09-.51,1.36-.87,2.73-1.1,4.11-.23.7-.34,1.37-.34,1.99s-.06,1.22-.17,1.8c1.58-3.24,3.49-6.43,5.75-9.58,2.26-3.15,4.62-5.95,7.1-8.4.9-.79,1.89-1.47,2.96-2.05,1.07-.58,2.11-.65,3.13-.21,1.24.52,1.89,1.43,1.94,2.72.06,1.29.03,2.56-.08,3.82-.23,2.28-.54,4.49-.93,6.63-.39,2.13-.82,4.36-1.27,6.67-.34,1.28-.68,2.68-1.01,4.18-.34,1.51-.39,2.92-.17,4.25.34,1.99,1.44,2.92,3.3,2.81,1.86-.11,3.64-.84,5.33-2.17,3.83-3.06,7.41-6.32,10.74-9.77,3.33-3.45,6.57-7,9.72-10.66"/>
      <path class="cls-3" d="M633.56,163.61c.34-.38.68-.42,1.01-.12.34.3.39.68.17,1.16-2.82,3.61-5.83,7.03-9.05,10.24-3.21,3.21-6.57,6.27-10.06,9.18-1.13.93-2.31,1.83-3.55,2.72-1.24.88-2.48,1.49-3.72,1.81-1.24.32-2.42.3-3.55-.07-1.13-.37-2.09-1.35-2.88-2.95-.9-1.58-1.21-3.26-.93-5.04.28-1.78.65-3.55,1.1-5.29.23-1.27.51-2.54.85-3.82.34-1.28.62-2.56.85-3.82.11-.46.25-1.07.42-1.83.17-.75.34-1.54.51-2.35.17-.81.28-1.58.34-2.32.06-.74-.03-1.32-.25-1.74-.34-.64-.76-.89-1.27-.78-.51.12-1.01.41-1.52.86-.51.46-1.01,1-1.52,1.62-.51.63-.87,1.12-1.1,1.49-1.8,2.02-3.33,3.96-4.57,5.8-1.35,1.74-2.65,3.59-3.89,5.55-1.24,1.96-2.59,3.81-4.06,5.57-.45.73-.9.73-1.35,0-.45.62-.85.67-1.18.14-.9-1.13-1.32-2.35-1.27-3.65.06-1.3.25-2.77.59-4.39.23-1.49.59-3.03,1.1-4.62.51-1.58,1.32-3.01,2.45-4.27.34-.49.85-.64,1.52-.44.68.2.96.59.85,1.16-.11,1.37-.42,2.73-.93,4.09-.51,1.36-.87,2.73-1.1,4.11-.23.7-.34,1.37-.34,1.99s-.06,1.22-.17,1.8c1.58-3.24,3.49-6.43,5.75-9.58,2.26-3.15,4.62-5.95,7.1-8.4.9-.79,1.89-1.47,2.96-2.05,1.07-.58,2.11-.65,3.13-.21,1.24.52,1.89,1.43,1.94,2.72.06,1.29.03,2.56-.08,3.82-.23,2.28-.54,4.49-.93,6.63-.39,2.13-.82,4.36-1.27,6.67-.34,1.28-.68,2.68-1.01,4.18-.34,1.51-.39,2.92-.17,4.25.34,1.99,1.44,2.92,3.3,2.81,1.86-.11,3.64-.84,5.33-2.17,3.83-3.06,7.41-6.32,10.74-9.77,3.33-3.45,6.57-7,9.72-10.66"/>
      <path class="cls-3" d="M643.37,169.85c1.58-2.9,2.99-6,4.23-9.31.11-.69.23-1.41.34-2.16.11-.75.08-1.39-.08-1.93-.17-.54-.51-.95-1.01-1.23-.51-.28-1.27-.24-2.28.11-1.13.36-2.11,1.08-2.96,2.14-.85,1.06-1.61,2.09-2.28,3.07-1.92,3.05-2.99,6.34-3.21,9.86,0,.68.06,1.4.17,2.18.11.78.34,1.42.68,1.95.34.52.82.8,1.44.84.62.04,1.44-.4,2.45-1.31.56-.41,1.07-1.06,1.52-1.96.45-.9.79-1.65,1.01-2.24M680.91,158.32c.23-.37.51-.46.85-.27.34.18.39.46.17.82-1.13,2.62-2.57,5.5-4.31,8.65-1.75,3.15-3.75,6.1-6,8.85-2.26,2.76-4.76,5.09-7.53,7.01-2.76,1.92-5.72,2.9-8.88,2.95-2.14.04-3.92-.45-5.33-1.46-1.41-1.01-2.51-2.31-3.3-3.91-.79-1.59-1.3-3.39-1.52-5.39-.23-2-.17-4.04.17-6.11-.23.48-.39.78-.51.91-.56,1.42-1.24,2.86-2.03,4.31-.79,1.45-1.86,2.54-3.21,3.27-1.58.87-2.9,1.12-3.97.74-1.07-.38-1.89-1.07-2.45-2.07-.56-1-.93-2.23-1.1-3.67-.17-1.45-.14-2.75.08-3.9.23-1.49.62-3.12,1.18-4.88.56-1.76,1.35-3.44,2.37-5.03,1.01-1.59,2.2-3,3.55-4.24,1.35-1.24,2.88-2.07,4.57-2.5,2.48-.64,4.06-.33,4.74.94.68,1.27.9,2.82.68,4.65.34-.04.39.06.17.32-.23.93-.45,1.69-.68,2.28.34-.38.56-.69.68-.93.56-.63,1.24-.8,2.03-.5s1.01.86.68,1.69c-1.01,2.6-1.89,5.11-2.62,7.51-.73,2.4-.82,4.98-.25,7.73.56,2.64,1.75,4.69,3.55,6.16,1.8,1.47,4.17,1.74,7.1.82,2.48-.75,4.79-2.05,6.93-3.89,2.14-1.84,4.09-3.94,5.83-6.29,1.75-2.36,3.33-4.83,4.74-7.43,1.41-2.6,2.62-4.97,3.64-7.13Z"/>
      <path class="cls-3" d="M729.96,151.81c.34-.38.68-.42,1.01-.12.34.3.39.68.17,1.16-2.82,3.61-5.83,7.03-9.05,10.24-3.21,3.21-6.57,6.27-10.06,9.18-1.13.93-2.31,1.83-3.55,2.72-1.24.88-2.48,1.49-3.72,1.81-1.24.32-2.42.3-3.55-.07-1.13-.37-2.09-1.35-2.88-2.95-.9-1.58-1.21-3.26-.93-5.04.28-1.78.65-3.55,1.1-5.29.23-1.27.51-2.54.85-3.82.34-1.28.62-2.56.85-3.82.11-.46.25-1.07.42-1.83.17-.75.34-1.54.51-2.35.17-.81.28-1.58.34-2.32.06-.74-.03-1.32-.25-1.74-.34-.64-.76-.89-1.27-.78-.51.12-1.01.41-1.52.86-.51.46-1.01,1-1.52,1.62-.51.63-.87,1.12-1.1,1.49-1.8,2.02-3.33,3.96-4.57,5.8-1.35,1.74-2.65,3.59-3.89,5.55-1.24,1.96-2.59,3.81-4.06,5.57-.45.73-.9.73-1.35,0-.45.62-.85.67-1.18.14-.9-1.13-1.32-2.35-1.27-3.65.06-1.3.25-2.77.59-4.39.23-1.49.59-3.03,1.1-4.62.51-1.58,1.32-3.01,2.45-4.27.34-.49.85-.64,1.52-.44.68.2.96.59.85,1.16-.11,1.37-.42,2.73-.93,4.09-.51,1.36-.87,2.73-1.1,4.11-.23.7-.34,1.37-.34,1.99s-.06,1.22-.17,1.8c1.58-3.24,3.49-6.43,5.75-9.58,2.26-3.15,4.62-5.95,7.1-8.4.9-.79,1.89-1.47,2.96-2.05,1.07-.58,2.11-.65,3.13-.21,1.24.52,1.89,1.43,1.94,2.72.06,1.29.03,2.56-.08,3.82-.23,2.28-.54,4.49-.93,6.63-.39,2.13-.82,4.36-1.27,6.67-.34,1.28-.68,2.68-1.01,4.18-.34,1.51-.39,2.92-.17,4.25.34,1.99,1.44,2.92,3.3,2.81,1.86-.11,3.64-.84,5.33-2.17,3.83-3.06,7.41-6.32,10.74-9.77,3.33-3.45,6.57-7,9.72-10.66"/>
      <path class="cls-3" d="M188.45,187.97c1.58-2.87,2.99-5.95,4.23-9.24.11-.69.23-1.41.34-2.15.11-.74.08-1.39-.08-1.94-.17-.55-.51-.96-1.01-1.25-.51-.29-1.27-.26-2.28.07-1.13.34-2.11,1.04-2.96,2.09-.85,1.05-1.61,2.06-2.28,3.03-1.92,3.02-2.99,6.29-3.21,9.81,0,.68.06,1.4.17,2.18.11.78.34,1.43.68,1.96.34.53.82.82,1.44.86.62.05,1.44-.38,2.45-1.27.56-.4,1.07-1.04,1.52-1.94.45-.89.79-1.63,1.01-2.22M226,177.1c.23-.36.51-.45.85-.26.34.19.39.47.17.83-1.13,2.6-2.57,5.46-4.31,8.57-1.75,3.11-3.75,6.03-6,8.75-2.26,2.72-4.76,5.01-7.53,6.88-2.76,1.87-5.72,2.8-8.88,2.79-2.14,0-3.92-.52-5.33-1.56-1.41-1.04-2.51-2.36-3.3-3.97-.79-1.61-1.3-3.42-1.52-5.42-.23-2.01-.17-4.04.17-6.11-.23.47-.39.77-.51.9-.56,1.41-1.24,2.84-2.03,4.27-.79,1.44-1.86,2.51-3.21,3.21-1.58.84-2.9,1.07-3.97.67-1.07-.4-1.89-1.1-2.45-2.11-.56-1.01-.93-2.24-1.1-3.69-.17-1.45-.14-2.75.08-3.9.23-1.49.62-3.11,1.18-4.86.56-1.75,1.35-3.41,2.37-4.98,1.01-1.57,2.2-2.96,3.55-4.18,1.35-1.21,2.88-2.02,4.57-2.42,2.48-.6,4.06-.26,4.74,1.03.68,1.28.9,2.84.68,4.66.34-.04.39.07.17.32-.23.93-.45,1.68-.68,2.27.34-.37.56-.68.68-.92.56-.62,1.24-.78,2.03-.47.79.31,1.01.88.68,1.71-1.01,2.59-1.89,5.07-2.62,7.46-.73,2.39-.82,4.96-.25,7.72.56,2.65,1.75,4.72,3.55,6.22,1.8,1.5,4.17,1.82,7.1.95,2.48-.71,4.79-1.97,6.93-3.77,2.14-1.8,4.09-3.87,5.83-6.19,1.75-2.33,3.33-4.77,4.74-7.35,1.41-2.57,2.62-4.93,3.64-7.06Z"/>
      <path class="cls-3" d="M228.37,167.21c-.23,1.15-.34,2.29-.34,3.42s.17,2.12.51,2.99c.9-2.24,1.89-4.4,2.96-6.48,1.07-2.09,1.95-4.29,2.62-6.62.45-1.29.82-2.54,1.1-3.75.28-1.21.54-2.45.76-3.72.11-.46.28-1.19.51-2.17.23-.98.23-1.69,0-2.11-.34-.75-.65-1.17-.93-1.26-.28-.08-.54.03-.76.33-.23.31-.48.67-.76,1.09-.28.42-.48.81-.59,1.16-1.24,2.72-2.28,5.54-3.13,8.45-.85,2.91-1.49,5.79-1.94,8.66M270.81,172.24c.23-.47.54-.62.93-.44.39.18.48.51.25.99-3.83,7.05-8.68,13.14-14.54,18.27-2.25,1.93-4.79,3.94-7.61,6.04-2.82,2.1-5.69,3.36-8.63,3.78-3.04.32-5.16-.25-6.34-1.7-1.18-1.45-1.8-3.39-1.86-5.81-.06-2.42.34-5.05,1.18-7.9.85-2.85,1.83-5.52,2.96-8-1.92,1.33-3.89,1.99-5.92,1.97-2.03-.01-3.66-1.08-4.9-3.21-1.13-1.8-1.58-3.81-1.35-6.03.23-2.22.62-4.38,1.18-6.47,1.13-4.97,2.65-9.69,4.57-14.18.45-1.06,1.16-2.32,2.11-3.77.96-1.45,2.17-2.2,3.64-2.24,1.35.08,2.2.7,2.54,1.85.34,1.15.39,2.3.17,3.45-.23,2.62-.76,5.21-1.61,7.78-.85,2.57-1.72,5.08-2.62,7.55-.79,1.77-1.61,3.64-2.45,5.58-.85,1.95-1.89,3.72-3.13,5.32,1.13,1.01,2.59,1.42,4.4,1.23,1.01-.11,1.95-.43,2.79-.97.85-.54,1.72-1.14,2.62-1.8.34-.6.65-1.11.93-1.53.28-.42.59-.77.93-1.03.68-.86,1.41-.99,2.2-.4.79.59.96,1.37.51,2.31-1.35,2.73-2.65,5.41-3.89,8.02-1.24,2.61-2.14,5.41-2.71,8.4-.23,1.26-.42,2.83-.59,4.71-.17,1.88.31,3.21,1.44,3.99,1.58,1.08,3.27,1.32,5.07.74,1.8-.58,3.44-1.35,4.9-2.29,4.85-2.99,9.19-6.54,13.02-10.66,3.83-4.12,7.1-8.64,9.81-13.54Z"/>
      <path class="cls-3" d="M316.48,174.56c1.58-2.87,2.99-5.95,4.23-9.24.11-.69.23-1.41.34-2.15.11-.74.08-1.39-.08-1.94-.17-.55-.51-.96-1.01-1.25-.51-.29-1.27-.26-2.28.07-1.13.34-2.11,1.04-2.96,2.09-.85,1.05-1.61,2.06-2.28,3.03-1.92,3.02-2.99,6.29-3.21,9.81,0,.68.06,1.4.17,2.18.11.78.34,1.43.68,1.96.34.53.82.82,1.44.86.62.05,1.44-.38,2.45-1.27.56-.4,1.07-1.04,1.52-1.94.45-.89.79-1.63,1.01-2.22M354.02,163.7c.23-.36.51-.45.85-.26.34.19.39.47.17.83-1.13,2.6-2.57,5.46-4.31,8.57-1.75,3.11-3.75,6.03-6,8.75-2.26,2.72-4.76,5.01-7.53,6.88-2.76,1.87-5.72,2.8-8.88,2.79-2.14,0-3.92-.52-5.33-1.56-1.41-1.04-2.51-2.36-3.3-3.97-.79-1.61-1.3-3.42-1.52-5.42-.23-2.01-.17-4.04.17-6.11-.23.47-.39.77-.51.9-.56,1.41-1.24,2.84-2.03,4.27-.79,1.44-1.86,2.51-3.21,3.21-1.58.84-2.9,1.07-3.97.67-1.07-.4-1.89-1.1-2.45-2.11-.56-1.01-.93-2.24-1.1-3.69-.17-1.45-.14-2.75.08-3.9.23-1.49.62-3.11,1.18-4.86.56-1.75,1.35-3.41,2.37-4.98,1.01-1.57,2.2-2.96,3.55-4.18,1.35-1.21,2.88-2.02,4.57-2.42,2.48-.6,4.06-.26,4.74,1.03.68,1.28.9,2.84.68,4.66.34-.04.39.07.17.32-.23.93-.45,1.68-.68,2.27.34-.37.56-.68.68-.92.56-.62,1.24-.78,2.03-.47.79.31,1.01.88.68,1.71-1.01,2.59-1.89,5.07-2.62,7.46-.73,2.39-.82,4.96-.25,7.72.56,2.65,1.75,4.72,3.55,6.22,1.8,1.5,4.17,1.82,7.1.95,2.48-.71,4.79-1.97,6.93-3.77,2.14-1.8,4.09-3.87,5.83-6.19,1.75-2.33,3.33-4.77,4.74-7.35,1.41-2.57,2.62-4.93,3.64-7.06Z"/>
      <path class="cls-3" d="M305.07,170.31l1.31-1.73,3.26-.41-1.31,1.73c-9.08,12-19.58,22.54-27.83,26.83-3.48,1.81-6.53,2.55-8.9,1.9-2.17-.6-3.74-2.4-4.5-5.69-1.31-5.73-.17-16.1,4.61-32.65l.03-.1c4.3-11.6,12.28-30.13,24.41-51.06,8.55-14.75,19.17-30.69,32.03-46.26h0c19.23-23.8,36.36-40.74,51.36-47.92,14.99-7.17,27.34-4.34,36.87,11.46l.53.87-4.05,3.02-.53-.87c-9.07-15.03-20.3-17.97-33.63-11.6-13.31,6.36-29.21,22.26-47.45,44.84l-.03.04c-12.56,15.2-22.97,30.84-31.38,45.34-11.96,20.62-19.83,38.92-24.08,50.38-4.67,16.17-5.79,26.26-4.53,31.77.67,2.93,2.01,4.52,3.82,5.02,1.62.45,3.65-.03,5.93-1.21,6.72-3.49,15.84-12.83,24.05-23.69"/>
    </g>
  </g>
</svg>